<svg width="62" height="52" viewBox="0 0 62 52" fill="none" xmlns="http://www.w3.org/2000/svg">
<path d="M25.2926 51.6568L5 7H18.5494L26.8681 26.011C27.1202 26.6065 27.4773 27.4145 27.9395 28.4353C28.4436 29.456 28.9688 30.6469 29.515 32.0078C30.1032 33.3263 30.6704 34.751 31.2165 36.2821C31.7627 37.8132 32.2459 39.4081 32.666 41.0668H30.0822C30.7124 39.0253 31.3636 37.1327 32.0358 35.389C32.75 33.6027 33.4433 31.944 34.1155 30.4129C34.8297 28.8818 35.4389 27.4571 35.9431 26.1386L44.1357 7H57.3701L37.5816 51.6568H25.2926Z" fill="#1A2E35"/>
<path d="M24.8954 51.752L3 4H17.6196L26.5954 24.3287C26.8674 24.9654 27.2527 25.8295 27.7514 26.921C28.2954 28.0124 28.862 29.2858 29.4513 30.7411C30.086 32.151 30.698 33.6745 31.2873 35.3117C31.8766 36.9489 32.3979 38.6543 32.8512 40.428H30.0633C30.7433 38.245 31.4459 36.2212 32.1713 34.3566C32.9419 32.4466 33.6899 30.6729 34.4152 29.0357C35.1858 27.3985 35.8432 25.875 36.3871 24.4652L45.2269 4H59.5066L38.1551 51.752H24.8954Z" fill="#396572"/>
<path d="M23.9285 51.6673L0.465805 0.661377L16.1319 0.661377L25.7502 22.3753C26.0416 23.0554 26.4545 23.9784 26.9889 25.1442C27.5718 26.3101 28.179 27.6702 28.8105 29.2247C29.4906 30.7306 30.1464 32.3579 30.7779 34.1067C31.4094 35.8555 31.9681 37.6771 32.4538 39.5716H29.4663C30.195 37.2399 30.9479 35.0782 31.7252 33.0866C32.551 31.0463 33.3525 29.1518 34.1297 27.4031C34.9555 25.6543 35.6599 24.027 36.2428 22.5211L45.7154 0.661377L61.0172 0.661377L38.1373 51.6673H23.9285Z" fill="#00C2FF"/>
</svg>
