<svg width="66" height="59" viewBox="0 0 66 59" fill="none" xmlns="http://www.w3.org/2000/svg">
<path
  d="M33.3883 58.3789L13.0957 13.7221H26.6451L34.9639 32.7332C35.2159 33.3286 35.5731 34.1367 36.0352 35.1574C36.5394 36.1781 37.0645 37.369 37.6107 38.7299C38.1989 40.0484 38.7661 41.4731 39.3123 43.0042C39.8584 44.5353 40.3416 46.1302 40.7617 47.7889H38.1779C38.8081 45.7474 39.4593 43.8548 40.1315 42.1111C40.8458 40.3248 41.539 38.6661 42.2112 37.1351C42.9254 35.604 43.5346 34.1792 44.0388 32.8608L52.2315 13.7221H65.4658L45.6773 58.3789H33.3883Z"
  fill="#1A2E35"
/>
<path
  d="M29.8769 56.6138L7.98141 8.86176H22.601L31.5768 29.1905C31.8488 29.8272 32.2341 30.6913 32.7328 31.7827C33.2768 32.8742 33.8434 34.1476 34.4327 35.6029C35.0674 37.0127 35.6794 38.5362 36.2687 40.1734C36.858 41.8107 37.3793 43.5161 37.8327 45.2897H35.0447C35.7247 43.1068 36.4274 41.083 37.1527 39.2184C37.9233 37.3083 38.6713 35.5347 39.3966 33.8975C40.1673 32.2603 40.8246 30.7367 41.3686 29.3269L50.2083 8.86176H64.488L43.1365 56.6138H29.8769Z"
  fill="#396572"
/>
<path
  d="M23.9285 51.6673L0.465805 0.661377L16.1319 0.661377L25.7502 22.3753C26.0416 23.0554 26.4545 23.9784 26.9889 25.1442C27.5718 26.3101 28.179 27.6702 28.8105 29.2247C29.4906 30.7306 30.1464 32.3579 30.7779 34.1067C31.4094 35.8555 31.9681 37.6771 32.4538 39.5716H29.4663C30.195 37.2399 30.9479 35.0782 31.7252 33.0866C32.551 31.0463 33.3525 29.1518 34.1297 27.4031C34.9555 25.6543 35.6599 24.027 36.2428 22.5211L45.7154 0.661377L61.0172 0.661377L38.1373 51.6673H23.9285Z"
  fill="#00C2FF"
/>
</svg>
