<svg width="100" height="100" viewBox="0 0 100 100" fill="none" xmlns="http://www.w3.org/2000/svg">
<rect width="100" height="100" fill="#0D0F20"/>
<path d="M48.8774 78.3615L30.9498 32.7038L44.4806 33.413L51.793 52.8333C52.0136 53.4411 52.3279 54.2668 52.736 55.3103C53.186 56.356 53.6482 57.5727 54.1224 58.9604C54.6407 60.3078 55.1326 61.7603 55.5979 63.3179C56.0632 64.8755 56.4622 66.4935 56.795 68.1719L54.2147 68.0366C54.9508 66.031 55.7002 64.175 56.4628 62.4689C57.2695 60.7224 58.0486 59.1023 58.8 57.6085C59.5934 56.1169 60.2763 54.7259 60.8488 53.4357L70.0319 34.752L83.2481 35.4447L61.1496 79.0047L48.8774 78.3615Z" fill="#1A2E35"/>
<path d="M45.4631 76.415L26.0968 27.5825L40.6964 28.3476L48.596 49.1182C48.8343 49.7683 49.1739 50.6514 49.6147 51.7674C50.1008 52.8859 50.6 54.1872 51.1124 55.6713C51.6724 57.1124 52.2038 58.6659 52.7066 60.3317C53.2095 61.9975 53.6408 63.7279 54.0007 65.5228L51.2166 65.3769C52.0099 63.2325 52.8175 61.2483 53.6394 59.4242C54.5089 57.5571 55.3487 55.825 56.1587 54.228C57.014 52.6334 57.7501 51.1464 58.3672 49.7669L68.2659 29.7925L82.526 30.5398L58.7046 77.1089L45.4631 76.415Z" fill="#396572"/>
<path d="M39.7818 71.164L19.0207 19L34.6653 19.8199L43.134 42.0075C43.3895 42.7019 43.7535 43.6452 44.2261 44.8374C44.7472 46.0322 45.2824 47.4223 45.8317 49.0076C46.432 50.5471 47.0018 52.2065 47.5409 53.9859C48.08 55.7653 48.5425 57.6137 48.9285 59.5311L45.9451 59.3747C46.7948 57.0843 47.6598 54.965 48.5402 53.0168C49.4717 51.0225 50.3713 49.1726 51.2389 47.4669C52.1552 45.7637 52.9437 44.1755 53.6047 42.7022L64.2083 21.3682L79.4891 22.169L53.9712 71.9076L39.7818 71.164Z" fill="#00C2FF"/>
</svg>
