<svg width="65" height="54" viewBox="0 0 65 54" fill="none" xmlns="http://www.w3.org/2000/svg">
<path d="M27.2926 52.6568L7 8H20.5494L28.8681 27.011C29.1202 27.6065 29.4773 28.4145 29.9395 29.4353C30.4436 30.456 30.9688 31.6469 31.515 33.0078C32.1032 34.3263 32.6704 35.751 33.2165 37.2821C33.7627 38.8132 34.2459 40.4081 34.666 42.0668H32.0822C32.7124 40.0253 33.3636 38.1327 34.0358 36.389C34.75 34.6027 35.4433 32.944 36.1155 31.4129C36.8297 29.8818 37.4389 28.4571 37.9431 27.1386L46.1357 8H59.3701L39.5816 52.6568H27.2926Z" fill="#1A2E35"/>
<path d="M26.8954 52.752L5 5H19.6196L28.5954 25.3287C28.8674 25.9654 29.2527 26.8295 29.7514 27.921C30.2954 29.0124 30.862 30.2858 31.4513 31.7411C32.086 33.151 32.698 34.6745 33.2873 36.3117C33.8766 37.9489 34.3979 39.6543 34.8512 41.428H32.0633C32.7433 39.245 33.4459 37.2212 34.1713 35.3566C34.9419 33.4466 35.6899 31.6729 36.4152 30.0357C37.1858 28.3985 37.8432 26.875 38.3871 25.4652L47.2269 5H61.5066L40.1551 52.752H26.8954Z" fill="#396572"/>
<path d="M25.4743 52.8763L25.6082 53.1673H25.9285H40.1373H40.4611L40.5935 52.872L63.4734 1.86602L63.7894 1.16138H63.0172H47.7154H47.3871L47.2566 1.46257L37.7841 23.3223L37.7801 23.3313L37.7766 23.3406C37.1987 24.8334 36.4993 26.4496 35.6776 28.1896L35.6775 28.1895L35.6728 28.2C34.893 29.9546 34.0893 31.8543 33.2617 33.899L33.2617 33.899L33.2594 33.9048C33.1927 34.0757 33.1262 34.2477 33.0599 34.421C32.4838 32.8593 31.8873 31.3948 31.2702 30.0277C30.6378 28.4714 30.0277 27.1045 29.4399 25.9282C28.908 24.7675 28.4982 23.8514 28.2098 23.1784L28.2098 23.1784L28.2073 23.1728L18.5891 1.45888L18.4573 1.16138H18.1319H2.46581H1.68544L2.01156 1.87033L25.4743 52.8763Z" fill="#00C2FF" stroke="#00C2FF"/>
</svg>
