<svg
  id="visual"
  class="absolute left-1/2 top-1/2 w-screen -translate-x-1/2 -translate-y-1/2"
  viewBox="0 0 960 540"
  xmlns="http://www.w3.org/2000/svg"
  xmlns:xlink="http://www.w3.org/1999/xlink"
  version="1.1"
>
  <path
    d="M0 50L17.8 47.2C35.7 44.3 71.3 38.7 106.8 35.8C142.3 33 177.7 33 213.2 34.8C248.7 36.7 284.3 40.3 320 43.2C355.7 46 391.3 48 426.8 48C462.3 48 497.7 46 533.2 44.2C568.7 42.3 604.3 40.7 640 40.7C675.7 40.7 711.3 42.3 746.8 45C782.3 47.7 817.7 51.3 853.2 52.3C888.7 53.3 924.3 51.7 942.2 50.8L960 50L960 0L942.2 0C924.3 0 888.7 0 853.2 0C817.7 0 782.3 0 746.8 0C711.3 0 675.7 0 640 0C604.3 0 568.7 0 533.2 0C497.7 0 462.3 0 426.8 0C391.3 0 355.7 0 320 0C284.3 0 248.7 0 213.2 0C177.7 0 142.3 0 106.8 0C71.3 0 35.7 0 17.8 0L0 0Z"
    fill="#0d0f20"
    stroke="#0d0f20"
  ></path>
  <path
    d="M0 98L17.8 93.5C35.7 89 71.3 80 106.8 79.2C142.3 78.3 177.7 85.7 213.2 91.2C248.7 96.7 284.3 100.3 320 103C355.7 105.7 391.3 107.3 426.8 103.7C462.3 100 497.7 91 533.2 89.2C568.7 87.3 604.3 92.7 640 98C675.7 103.3 711.3 108.7 746.8 109.7C782.3 110.7 817.7 107.3 853.2 102.8C888.7 98.3 924.3 92.7 942.2 89.8L960 87L960 48L942.2 48.8C924.3 49.7 888.7 51.3 853.2 50.3C817.7 49.3 782.3 45.7 746.8 43C711.3 40.3 675.7 38.7 640 38.7C604.3 38.7 568.7 40.3 533.2 42.2C497.7 44 462.3 46 426.8 46C391.3 46 355.7 44 320 41.2C284.3 38.3 248.7 34.7 213.2 32.8C177.7 31 142.3 31 106.8 33.8C71.3 36.7 35.7 42.3 17.8 45.2L0 48Z"
    fill="#101325"
    stroke="#101325"
  ></path>
  <path
    d="M0 195L17.8 200.5C35.7 206 71.3 217 106.8 220.7C142.3 224.3 177.7 220.7 213.2 221.5C248.7 222.3 284.3 227.7 320 231.3C355.7 235 391.3 237 426.8 231.7C462.3 226.3 497.7 213.7 533.2 213.7C568.7 213.7 604.3 226.3 640 228.2C675.7 230 711.3 221 746.8 224.5C782.3 228 817.7 244 853.2 243C888.7 242 924.3 224 942.2 215L960 206L960 85L942.2 87.8C924.3 90.7 888.7 96.3 853.2 100.8C817.7 105.3 782.3 108.7 746.8 107.7C711.3 106.7 675.7 101.3 640 96C604.3 90.7 568.7 85.3 533.2 87.2C497.7 89 462.3 98 426.8 101.7C391.3 105.3 355.7 103.7 320 101C284.3 98.3 248.7 94.7 213.2 89.2C177.7 83.7 142.3 76.3 106.8 77.2C71.3 78 35.7 87 17.8 91.5L0 96Z"
    fill="#12172b"
    stroke="#12172b"
  ></path>
  <path
    d="M0 336L17.8 335C35.7 334 71.3 332 106.8 333.8C142.3 335.7 177.7 341.3 213.2 351.3C248.7 361.3 284.3 375.7 320 380.2C355.7 384.7 391.3 379.3 426.8 369.3C462.3 359.3 497.7 344.7 533.2 347.3C568.7 350 604.3 370 640 375.5C675.7 381 711.3 372 746.8 368.3C782.3 364.7 817.7 366.3 853.2 362.7C888.7 359 924.3 350 942.2 345.5L960 341L960 204L942.2 213C924.3 222 888.7 240 853.2 241C817.7 242 782.3 226 746.8 222.5C711.3 219 675.7 228 640 226.2C604.3 224.3 568.7 211.7 533.2 211.7C497.7 211.7 462.3 224.3 426.8 229.7C391.3 235 355.7 233 320 229.3C284.3 225.7 248.7 220.3 213.2 219.5C177.7 218.7 142.3 222.3 106.8 218.7C71.3 215 35.7 204 17.8 198.5L0 193Z"
    fill="#13182d"
    stroke="#13182d"
  ></path>
  <path
    d="M0 401L17.8 401C35.7 401 71.3 401 106.8 402.7C142.3 404.3 177.7 407.7 213.2 413C248.7 418.3 284.3 425.7 320 431.2C355.7 436.7 391.3 440.3 426.8 434C462.3 427.7 497.7 411.3 533.2 409.5C568.7 407.7 604.3 420.3 640 422.2C675.7 424 711.3 415 746.8 415C782.3 415 817.7 424 853.2 424C888.7 424 924.3 415 942.2 410.5L960 406L960 339L942.2 343.5C924.3 348 888.7 357 853.2 360.7C817.7 364.3 782.3 362.7 746.8 366.3C711.3 370 675.7 379 640 373.5C604.3 368 568.7 348 533.2 345.3C497.7 342.7 462.3 357.3 426.8 367.3C391.3 377.3 355.7 382.7 320 378.2C284.3 373.7 248.7 359.3 213.2 349.3C177.7 339.3 142.3 333.7 106.8 331.8C71.3 330 35.7 332 17.8 333L0 334Z"
    fill="#12172b"
    stroke="#12172b"
  ></path>
  <path
    d="M0 503L17.8 504.8C35.7 506.7 71.3 510.3 106.8 509.5C142.3 508.7 177.7 503.3 213.2 500.7C248.7 498 284.3 498 320 500.7C355.7 503.3 391.3 508.7 426.8 507.7C462.3 506.7 497.7 499.3 533.2 496.7C568.7 494 604.3 496 640 499.7C675.7 503.3 711.3 508.7 746.8 509.5C782.3 510.3 817.7 506.7 853.2 505.8C888.7 505 924.3 507 942.2 508L960 509L960 404L942.2 408.5C924.3 413 888.7 422 853.2 422C817.7 422 782.3 413 746.8 413C711.3 413 675.7 422 640 420.2C604.3 418.3 568.7 405.7 533.2 407.5C497.7 409.3 462.3 425.7 426.8 432C391.3 438.3 355.7 434.7 320 429.2C284.3 423.7 248.7 416.3 213.2 411C177.7 405.7 142.3 402.3 106.8 400.7C71.3 399 35.7 399 17.8 399L0 399Z"
    fill="#101325"
    stroke="#101325"
  ></path>
  <path
    d="M0 541L17.8 541C35.7 541 71.3 541 106.8 541C142.3 541 177.7 541 213.2 541C248.7 541 284.3 541 320 541C355.7 541 391.3 541 426.8 541C462.3 541 497.7 541 533.2 541C568.7 541 604.3 541 640 541C675.7 541 711.3 541 746.8 541C782.3 541 817.7 541 853.2 541C888.7 541 924.3 541 942.2 541L960 541L960 507L942.2 506C924.3 505 888.7 503 853.2 503.8C817.7 504.7 782.3 508.3 746.8 507.5C711.3 506.7 675.7 501.3 640 497.7C604.3 494 568.7 492 533.2 494.7C497.7 497.3 462.3 504.7 426.8 505.7C391.3 506.7 355.7 501.3 320 498.7C284.3 496 248.7 496 213.2 498.7C177.7 501.3 142.3 506.7 106.8 507.5C71.3 508.3 35.7 504.7 17.8 502.8L0 501Z"
    fill="#0d0f20"
    stroke="#0d0f20"
  ></path>
</svg>