<svg
  id="visual"
  class="absolute left-0 top-1/2 -translate-y-1/2 overflow-visible opacity-25"
  width="4800"
  height="306"
  viewBox="0 0 4800 306"
  fill="none"
  xmlns="http://www.w3.org/2000/svg"
>
  <g id="visual3" opacity="0.4">
    <g id="Group 7">
      <path
        id="9"
        opacity="0.7"
        d="M2400 62.847C2336.5 62.847 2319.13 31.2393 2266.67 18.5685C2230.14 9.74729 2193.79 0.900672 2157.33 6.62124L2157.33 6.62183C2149.34 7.87574 2141.34 9.13049 2133.33 10.2333C2088.8 16.3677 2044.53 17.6423 2000 12.3843C1988.63 11.0211 1977.27 9.22659 1965.92 7.43342C1932.84 2.20544 1899.83 -3.01112 1866.67 2.50566C1848.1 5.62737 1829.58 12.0993 1811.07 18.5685C1785.18 27.6182 1759.3 36.6627 1733.33 36.5233C1710.12 36.3987 1686.97 28.8906 1663.82 21.3814C1642.57 14.4868 1621.32 7.59146 1600 6.40932C1562.46 4.26037 1525.11 19.773 1487.63 35.3395C1480.65 38.2399 1473.66 41.1421 1466.67 43.9323C1422.13 61.7776 1377.87 75.0023 1333.33 81.296C1299.54 86.0119 1265.89 86.69 1232.17 87.3696C1221.46 87.5855 1210.74 87.8016 1200 88.1473C1185.99 88.6236 1172 89.3128 1158.02 90.0016L1158.02 90.0017C1127.58 91.5018 1097.19 92.9997 1066.67 92.29C1038.11 91.6259 1009.67 88.964 981.193 86.2992C965.258 84.8079 949.313 83.3157 933.333 82.1723C914.883 80.852 896.478 79.9967 878.081 79.1418C852.074 77.9331 826.083 76.7253 800 74.2056C761.576 70.5626 723.351 64.1321 684.982 57.6774L684.979 57.6769C678.879 56.6507 672.775 55.6239 666.667 54.6077C622.133 47.119 577.867 40.2677 533.333 42.1C515.345 42.8401 497.401 45.023 479.465 47.2048C452.996 50.4247 426.545 53.6423 400 52.2177C375.503 50.9029 351.086 45.6346 326.661 40.3646C306.684 36.0543 286.703 31.7429 266.667 29.5923C222.133 24.8123 177.867 30.7076 133.333 37.9573C91.5647 44.8316 50.0298 52.9676 26.552 57.5665L26.5242 57.5719C24.9807 57.8743 23.5154 58.1613 22.1333 58.4316L3.83339e-08 62.8133L1.67029e-07 277.049L22.1333 280.077C44.5333 283.184 88.8 289.238 133.333 293.142C177.867 296.966 222.133 298.559 266.667 295.532C296.106 293.478 325.429 289.44 354.789 285.396C369.843 283.323 384.906 281.248 400 279.439C444.533 274.102 488.8 271.234 533.333 274.022C557.641 275.544 581.87 278.751 606.106 281.959C626.271 284.629 646.441 287.299 666.667 288.999C698.63 291.687 730.457 291.871 762.343 292.055C774.882 292.128 787.43 292.2 800 292.425C821.379 292.807 842.697 293.631 864.012 294.454L864.016 294.454C887.1 295.345 910.181 296.236 933.333 296.568C961.446 296.97 989.453 296.61 1017.49 296.25C1033.86 296.04 1050.25 295.83 1066.67 295.771C1093.04 295.677 1119.32 296.029 1145.62 296.382H1145.63L1145.63 296.382C1163.73 296.625 1181.84 296.869 1200 296.966C1244.53 297.205 1288.8 296.727 1333.33 291.788C1349.09 290.04 1364.82 287.753 1380.53 285.468C1409.23 281.295 1437.89 277.128 1466.67 276.253C1501.2 275.203 1535.57 278.99 1570.02 282.787C1580.01 283.887 1590 284.988 1600 285.972C1635.04 289.419 1669.91 291.437 1704.88 293.459L1704.9 293.461C1714.37 294.008 1723.84 294.556 1733.33 295.134C1749.05 296.062 1764.74 297.059 1780.42 298.056L1780.44 298.057L1780.44 298.057C1809.17 299.884 1837.86 301.709 1866.67 303.1C1911.2 305.172 1955.47 306.287 2000 304.295C2019.98 303.402 2039.9 301.883 2059.82 300.365C2084.3 298.499 2108.78 296.633 2133.33 295.93C2149.43 295.441 2165.5 295.44 2181.56 295.44C2209.91 295.44 2238.23 295.439 2266.67 292.744C2312.42 288.324 2356.11 277.53 2400 277V62.847Z"
        fill="#263357"
        stroke="#263357"
      />
      <path
        id="10"
        opacity="0.7"
        d="M4800 62.847C4736.5 62.847 4719.13 31.2393 4666.67 18.5685C4630.14 9.74729 4593.79 0.900672 4557.33 6.62124L4557.33 6.62183C4549.34 7.87574 4541.34 9.13049 4533.33 10.2333C4488.8 16.3677 4444.53 17.6423 4400 12.3843C4388.63 11.0211 4377.27 9.22659 4365.92 7.43342C4332.84 2.20544 4299.83 -3.01112 4266.67 2.50566C4248.1 5.62737 4229.58 12.0993 4211.07 18.5685C4185.18 27.6182 4159.3 36.6627 4133.33 36.5233C4110.12 36.3987 4086.97 28.8906 4063.82 21.3814C4042.57 14.4868 4021.32 7.59146 4000 6.40932C3962.46 4.26037 3925.11 19.773 3887.63 35.3395C3880.65 38.2399 3873.66 41.1421 3866.67 43.9323C3822.13 61.7776 3777.87 75.0023 3733.33 81.296C3699.54 86.0119 3665.89 86.69 3632.17 87.3696C3621.46 87.5855 3610.74 87.8016 3600 88.1473C3585.99 88.6236 3572 89.3128 3558.02 90.0016L3558.02 90.0017C3527.58 91.5018 3497.19 92.9997 3466.67 92.29C3438.11 91.6259 3409.67 88.964 3381.19 86.2992C3365.26 84.8079 3349.31 83.3157 3333.33 82.1723C3314.88 80.852 3296.48 79.9967 3278.08 79.1418C3252.07 77.9331 3226.08 76.7253 3200 74.2056C3161.58 70.5626 3123.35 64.1321 3084.98 57.6774L3084.98 57.6769C3078.88 56.6507 3072.78 55.6239 3066.67 54.6077C3022.13 47.119 2977.87 40.2677 2933.33 42.1C2915.35 42.8401 2897.4 45.023 2879.46 47.2048C2853 50.4247 2826.55 53.6423 2800 52.2177C2775.5 50.9029 2751.09 45.6346 2726.66 40.3646C2706.68 36.0543 2686.7 31.7429 2666.67 29.5923C2622.13 24.8123 2577.87 30.7076 2533.33 37.9573C2491.56 44.8316 2450.03 52.9676 2426.55 57.5665L2426.52 57.5719C2424.98 57.8743 2423.52 58.1613 2422.13 58.4316L2400 62.8133L2400 277.049L2422.13 280.077C2444.53 283.184 2488.8 289.238 2533.33 293.142C2577.87 296.966 2622.13 298.559 2666.67 295.532C2696.11 293.478 2725.43 289.44 2754.79 285.396C2769.84 283.323 2784.91 281.248 2800 279.439C2844.53 274.102 2888.8 271.234 2933.33 274.022C2957.64 275.544 2981.87 278.751 3006.11 281.959C3026.27 284.629 3046.44 287.299 3066.67 288.999C3098.63 291.687 3130.46 291.871 3162.34 292.055C3174.88 292.128 3187.43 292.2 3200 292.425C3221.38 292.807 3242.7 293.631 3264.01 294.454L3264.02 294.454C3287.1 295.345 3310.18 296.236 3333.33 296.568C3361.45 296.97 3389.45 296.61 3417.49 296.25C3433.86 296.04 3450.25 295.83 3466.67 295.771C3493.04 295.677 3519.32 296.029 3545.62 296.382H3545.63L3545.63 296.382C3563.73 296.625 3581.84 296.869 3600 296.966C3644.53 297.205 3688.8 296.727 3733.33 291.788C3749.09 290.04 3764.82 287.753 3780.53 285.468C3809.23 281.295 3837.89 277.128 3866.67 276.253C3901.2 275.203 3935.57 278.99 3970.02 282.787C3980.01 283.887 3990 284.988 4000 285.972C4035.04 289.419 4069.91 291.437 4104.88 293.459L4104.9 293.461C4114.37 294.008 4123.84 294.556 4133.33 295.134C4149.05 296.062 4164.74 297.059 4180.42 298.056L4180.44 298.057L4180.44 298.057C4209.17 299.884 4237.86 301.709 4266.67 303.1C4311.2 305.172 4355.47 306.287 4400 304.295C4419.98 303.402 4439.9 301.883 4459.82 300.365C4484.3 298.499 4508.78 296.633 4533.33 295.93C4549.43 295.441 4565.5 295.44 4581.56 295.44C4609.91 295.44 4638.23 295.439 4666.67 292.744C4712.42 288.324 4756.11 277.53 4800 277V62.847Z"
        fill="#263357"
        stroke="#263357"
      />
    </g>
    <g id="Group 6">
      <path
        id="8"
        opacity="0.7"
        d="M2400 49.2338C2355.77 41.8241 2309.94 65.7295 2266.67 75.56C2222.13 85.6777 2177.87 92.529 2133.33 86.554C2109.29 83.3274 2085.31 76.3606 2061.34 69.392C2040.91 63.456 2020.48 57.5186 2000 53.8906C1955.47 46.0833 1911.2 49.27 1866.67 61.3793C1852.79 65.1277 1838.94 69.7502 1825.1 74.3694C1794.52 84.5745 1763.99 94.7637 1733.33 95.4767C1694.97 96.3689 1656.8 82.5372 1618.48 68.6536L1618.48 68.6527C1612.33 66.4218 1606.17 64.1894 1600 62.0167C1555.47 46.3223 1511.2 33.8943 1466.67 35.9656C1435.39 37.4765 1404.24 46.1799 1373.04 54.8982C1359.82 58.5922 1346.59 62.2889 1333.33 65.4423C1288.8 76.1176 1244.53 80.579 1200 81.535C1160.72 82.3783 1121.64 80.3701 1082.41 78.3539C1077.17 78.0844 1071.92 77.8147 1066.67 77.5517C1063.23 77.3795 1059.79 77.2092 1056.36 77.039C1015.3 75.004 974.429 72.9785 933.333 67.8323C906.098 64.4217 878.962 59.6405 851.804 54.8553C834.555 51.8162 817.298 48.7755 800 46.0833C755.467 39.1523 711.2 34.691 666.667 34.1333C622.133 33.5757 577.867 37.081 533.333 41.861C488.8 46.641 444.533 52.6957 400 61.6183C389.513 63.7195 379.041 65.9708 368.577 68.2205C334.604 75.5242 300.713 82.8102 266.667 84.881C222.133 87.51 177.867 81.1367 133.333 73.7277C88.8 66.239 44.5333 57.7943 22.1333 53.4923L3.01981e-08 49.27L1.64198e-07 272.337L22.1333 269.309C44.5333 266.202 88.8 260.148 133.333 256.244C177.867 252.42 222.133 250.827 266.667 253.854C296.106 255.908 325.429 259.946 354.789 263.99C369.843 266.063 384.906 268.138 400 269.947C444.533 275.284 488.8 278.152 533.333 275.364C557.641 273.842 581.87 270.635 606.106 267.427C626.271 264.757 646.441 262.087 666.667 260.387C698.63 257.699 730.457 257.515 762.343 257.331C774.882 257.258 787.43 257.186 800 256.961C821.379 256.579 842.697 255.755 864.012 254.932L864.016 254.932H864.018C887.101 254.041 910.181 253.15 933.333 252.818C961.446 252.416 989.453 252.776 1017.49 253.136C1033.86 253.346 1050.25 253.556 1066.67 253.615C1093.04 253.709 1119.33 253.357 1145.63 253.004C1163.73 252.761 1181.84 252.517 1200 252.42C1244.53 252.181 1288.8 252.659 1333.33 257.598C1349.09 259.346 1364.82 261.633 1380.53 263.918C1409.23 268.09 1437.89 272.258 1466.67 273.133C1501.2 274.183 1535.57 270.396 1570.02 266.599C1580.01 265.499 1590 264.398 1600 263.414C1635.04 259.967 1669.91 257.949 1704.88 255.927L1704.9 255.926C1714.37 255.378 1723.84 254.829 1733.33 254.252C1749.06 253.324 1764.75 252.326 1780.44 251.329L1780.44 251.329C1809.17 249.502 1837.86 247.677 1866.67 246.286C1911.2 244.214 1955.47 243.099 2000 245.091C2019.98 245.984 2039.9 247.503 2059.82 249.021C2084.3 250.887 2108.78 252.753 2133.33 253.456C2149.43 253.945 2165.5 253.946 2181.56 253.946C2209.91 253.946 2238.23 253.947 2266.67 256.642C2312.9 261.108 2353.64 274.841 2400 272.356V49.2338Z"
        fill="#374F7A"
        stroke="#374F7A"
      />
      <path
        id="11"
        opacity="0.7"
        d="M4800 49.2338C4755.77 41.8241 4709.94 65.7295 4666.67 75.56C4622.13 85.6777 4577.87 92.529 4533.33 86.554C4509.29 83.3274 4485.31 76.3606 4461.34 69.392C4440.91 63.456 4420.48 57.5186 4400 53.8906C4355.47 46.0833 4311.2 49.27 4266.67 61.3793C4252.79 65.1277 4238.94 69.7502 4225.1 74.3694C4194.52 84.5745 4163.99 94.7637 4133.33 95.4767C4094.97 96.3689 4056.8 82.5372 4018.48 68.6536L4018.48 68.6527C4012.33 66.4218 4006.17 64.1894 4000 62.0167C3955.47 46.3223 3911.2 33.8943 3866.67 35.9656C3835.39 37.4765 3804.24 46.1799 3773.04 54.8982C3759.82 58.5922 3746.59 62.2889 3733.33 65.4423C3688.8 76.1176 3644.53 80.579 3600 81.535C3560.72 82.3783 3521.64 80.3701 3482.41 78.3539C3477.17 78.0844 3471.92 77.8147 3466.67 77.5517C3463.23 77.3795 3459.79 77.2092 3456.36 77.039C3415.3 75.004 3374.43 72.9785 3333.33 67.8323C3306.1 64.4217 3278.96 59.6405 3251.8 54.8553C3234.56 51.8162 3217.3 48.7755 3200 46.0833C3155.47 39.1523 3111.2 34.691 3066.67 34.1333C3022.13 33.5757 2977.87 37.081 2933.33 41.861C2888.8 46.641 2844.53 52.6957 2800 61.6183C2789.51 63.7195 2779.04 65.9708 2768.58 68.2205C2734.6 75.5242 2700.71 82.8102 2666.67 84.881C2622.13 87.51 2577.87 81.1367 2533.33 73.7277C2488.8 66.239 2444.53 57.7943 2422.13 53.4923L2400 49.27L2400 272.337L2422.13 269.309C2444.53 266.202 2488.8 260.148 2533.33 256.244C2577.87 252.42 2622.13 250.827 2666.67 253.854C2696.11 255.908 2725.43 259.946 2754.79 263.99C2769.84 266.063 2784.91 268.138 2800 269.947C2844.53 275.284 2888.8 278.152 2933.33 275.364C2957.64 273.842 2981.87 270.635 3006.11 267.427C3026.27 264.757 3046.44 262.087 3066.67 260.387C3098.63 257.699 3130.46 257.515 3162.34 257.331C3174.88 257.258 3187.43 257.186 3200 256.961C3221.38 256.579 3242.7 255.755 3264.01 254.932L3264.02 254.932H3264.02C3287.1 254.041 3310.18 253.15 3333.33 252.818C3361.45 252.416 3389.45 252.776 3417.49 253.136C3433.86 253.346 3450.25 253.556 3466.67 253.615C3493.04 253.709 3519.33 253.357 3545.63 253.004C3563.73 252.761 3581.84 252.517 3600 252.42C3644.53 252.181 3688.8 252.659 3733.33 257.598C3749.09 259.346 3764.82 261.633 3780.53 263.918C3809.23 268.09 3837.89 272.258 3866.67 273.133C3901.2 274.183 3935.57 270.396 3970.02 266.599C3980.01 265.499 3990 264.398 4000 263.414C4035.04 259.967 4069.91 257.949 4104.88 255.927L4104.9 255.926C4114.37 255.378 4123.84 254.829 4133.33 254.252C4149.06 253.324 4164.75 252.326 4180.44 251.329L4180.44 251.329C4209.17 249.502 4237.86 247.677 4266.67 246.286C4311.2 244.214 4355.47 243.099 4400 245.091C4419.98 245.984 4439.9 247.503 4459.82 249.021C4484.3 250.887 4508.78 252.753 4533.33 253.456C4549.43 253.945 4565.5 253.946 4581.56 253.946C4609.91 253.946 4638.23 253.947 4666.67 256.642C4712.9 261.108 4753.64 274.841 4800 272.356V49.2338Z"
        fill="#374F7A"
        stroke="#374F7A"
      />
    </g>
    <g id="Group 5">
      <path
        id="7"
        opacity="0.7"
        d="M2400 74.7646C2367 68 2291 63.5 2277.5 65.5C2264 67.5 2215.14 87.2306 2189.4 87.8535C2170.73 88.3053 2152.06 88.7574 2133.33 87.3506C2117.39 86.1815 2101.49 83.6549 2085.59 81.1298C2057.08 76.6003 2028.59 72.0758 2000 75.4006C1976.25 78.1623 1952.58 86.3394 1928.9 94.5182C1908.18 101.675 1887.45 108.834 1866.67 112.366C1831.98 118.262 1797.45 114.053 1762.83 109.834C1753 108.637 1743.18 107.439 1733.33 106.471C1688.8 102.089 1644.53 102.408 1600 109.418C1584.46 111.865 1568.94 115.147 1553.44 118.427C1524.53 124.543 1495.66 130.652 1466.67 131.327C1437.56 132.004 1408.56 127.269 1379.53 122.528C1364.15 120.016 1348.76 117.502 1333.33 115.792C1294.67 111.504 1256.21 112.379 1217.61 113.258L1217.6 113.258C1211.74 113.392 1205.87 113.525 1200 113.641C1155.47 114.597 1111.2 114.597 1066.67 108.861C1048.48 106.55 1030.33 103.27 1012.2 99.9909C985.928 95.2418 959.677 90.4958 933.333 88.705C888.8 85.6776 844.533 90.9356 800 98.265C782.935 101.074 765.908 104.163 748.891 107.251C721.501 112.221 694.135 117.186 666.667 120.97C622.133 127.104 577.867 129.972 533.333 123.201C513.139 120.13 492.999 115.077 472.864 110.025C448.597 103.937 424.339 97.85 400 95.2377C363.325 91.3012 326.831 95.2531 290.221 99.2178C282.376 100.067 274.525 100.917 266.667 101.691C222.133 106.072 177.867 107.984 133.333 103.045C88.8 98.1057 44.5333 86.4743 22.1333 80.5789L4.55125e-08 74.7633L1.64198e-07 272.337L22.1333 269.309C44.5333 266.202 88.8 260.148 133.333 256.244C177.867 252.42 222.133 250.827 266.667 253.854C296.106 255.908 325.429 259.946 354.789 263.99C369.843 266.063 384.906 268.137 400 269.947C444.533 275.284 488.8 278.152 533.333 275.364C557.641 273.842 581.87 270.635 606.106 267.426C626.271 264.757 646.441 262.087 666.667 260.387C698.63 257.699 730.457 257.515 762.343 257.331C774.882 257.258 787.43 257.186 800 256.961C821.379 256.578 842.697 255.755 864.012 254.932L864.016 254.932H864.018C887.101 254.041 910.181 253.15 933.333 252.818C961.446 252.416 989.453 252.775 1017.49 253.135C1033.86 253.346 1050.25 253.556 1066.67 253.615C1093.04 253.709 1119.33 253.356 1145.63 253.003C1163.73 252.76 1181.84 252.517 1200 252.42C1244.53 252.181 1288.8 252.659 1333.33 257.598C1349.09 259.346 1364.82 261.633 1380.53 263.918C1409.23 268.09 1437.89 272.258 1466.67 273.133C1501.2 274.183 1535.57 270.396 1570.02 266.599C1580.01 265.499 1590 264.398 1600 263.414C1635.04 259.966 1669.91 257.949 1704.88 255.926L1704.9 255.925C1714.37 255.378 1723.84 254.829 1733.33 254.252C1749.06 253.324 1764.75 252.326 1780.44 251.329L1780.44 251.328C1809.17 249.502 1837.86 247.677 1866.67 246.285C1911.2 244.214 1955.47 243.099 2000 245.09C2019.98 245.984 2039.9 247.503 2059.82 249.021C2084.3 250.887 2108.78 252.753 2133.33 253.456C2149.43 253.945 2165.5 253.945 2181.56 253.946C2209.91 253.946 2238.23 253.946 2266.67 256.642C2311.72 260.994 2356.6 281.283 2400 272.354V74.7646Z"
        fill="#476D9E"
        stroke="#476D9E"
      />
      <path
        id="12"
        opacity="0.7"
        d="M4800 74.7646C4767 68 4691 63.5 4677.5 65.5C4664 67.5 4615.14 87.2306 4589.4 87.8535C4570.73 88.3053 4552.06 88.7574 4533.33 87.3506C4517.39 86.1815 4501.49 83.6549 4485.59 81.1298C4457.08 76.6003 4428.59 72.0758 4400 75.4006C4376.25 78.1623 4352.58 86.3394 4328.9 94.5182C4308.18 101.675 4287.45 108.834 4266.67 112.366C4231.98 118.262 4197.45 114.053 4162.83 109.834C4153 108.637 4143.18 107.439 4133.33 106.471C4088.8 102.089 4044.53 102.408 4000 109.418C3984.46 111.865 3968.94 115.147 3953.44 118.427C3924.53 124.543 3895.66 130.652 3866.67 131.327C3837.56 132.004 3808.56 127.269 3779.53 122.528C3764.15 120.016 3748.76 117.502 3733.33 115.792C3694.67 111.504 3656.21 112.379 3617.61 113.258L3617.6 113.258C3611.74 113.392 3605.87 113.525 3600 113.641C3555.47 114.597 3511.2 114.597 3466.67 108.861C3448.48 106.55 3430.33 103.27 3412.2 99.9909C3385.93 95.2418 3359.68 90.4958 3333.33 88.705C3288.8 85.6776 3244.53 90.9356 3200 98.265C3182.93 101.074 3165.91 104.163 3148.89 107.251C3121.5 112.221 3094.13 117.186 3066.67 120.97C3022.13 127.104 2977.87 129.972 2933.33 123.201C2913.14 120.13 2893 115.077 2872.86 110.025C2848.6 103.937 2824.34 97.85 2800 95.2377C2763.33 91.3012 2726.83 95.2531 2690.22 99.2178C2682.38 100.067 2674.53 100.917 2666.67 101.691C2622.13 106.072 2577.87 107.984 2533.33 103.045C2488.8 98.1057 2444.53 86.4743 2422.13 80.5789L2400 74.7633L2400 272.337L2422.13 269.309C2444.53 266.202 2488.8 260.148 2533.33 256.244C2577.87 252.42 2622.13 250.827 2666.67 253.854C2696.11 255.908 2725.43 259.946 2754.79 263.99C2769.84 266.063 2784.91 268.137 2800 269.947C2844.53 275.284 2888.8 278.152 2933.33 275.364C2957.64 273.842 2981.87 270.635 3006.11 267.426C3026.27 264.757 3046.44 262.087 3066.67 260.387C3098.63 257.699 3130.46 257.515 3162.34 257.331C3174.88 257.258 3187.43 257.186 3200 256.961C3221.38 256.578 3242.7 255.755 3264.01 254.932L3264.02 254.932H3264.02C3287.1 254.041 3310.18 253.15 3333.33 252.818C3361.45 252.416 3389.45 252.775 3417.49 253.135C3433.86 253.346 3450.25 253.556 3466.67 253.615C3493.04 253.709 3519.33 253.356 3545.63 253.003C3563.73 252.76 3581.84 252.517 3600 252.42C3644.53 252.181 3688.8 252.659 3733.33 257.598C3749.09 259.346 3764.82 261.633 3780.53 263.918C3809.23 268.09 3837.89 272.258 3866.67 273.133C3901.2 274.183 3935.57 270.396 3970.02 266.599C3980.01 265.499 3990 264.398 4000 263.414C4035.04 259.966 4069.91 257.949 4104.88 255.926L4104.9 255.925C4114.37 255.378 4123.84 254.829 4133.33 254.252C4149.06 253.324 4164.75 252.326 4180.44 251.329L4180.44 251.328C4209.17 249.502 4237.86 247.677 4266.67 246.285C4311.2 244.214 4355.47 243.099 4400 245.09C4419.98 245.984 4439.9 247.503 4459.82 249.021C4484.3 250.887 4508.78 252.753 4533.33 253.456C4549.43 253.945 4565.5 253.945 4581.56 253.946C4609.91 253.946 4638.23 253.946 4666.67 256.642C4711.72 260.994 4756.6 281.283 4800 272.354V74.7646Z"
        fill="#476D9E"
        stroke="#476D9E"
      />
    </g>
    <g id="Group 4">
      <path
        id="6"
        opacity="0.7"
        d="M2400 127C2357.55 119.428 2309.65 117.866 2266.67 122.864C2245.92 125.277 2225.23 131.339 2204.54 137.4C2180.83 144.347 2157.12 151.292 2133.33 152.739C2107.46 154.267 2081.67 149.258 2055.87 144.246C2037.26 140.632 2018.66 137.018 2000 135.85C1979.38 134.559 1958.82 136.256 1938.26 137.954C1914.42 139.923 1890.58 141.891 1866.67 139.196C1848.07 137.066 1829.51 132.13 1810.97 127.195C1785.11 120.314 1759.27 113.438 1733.33 114.18C1710.95 114.861 1688.63 121.238 1666.31 127.616C1644.23 133.926 1622.15 140.236 1600 141.028C1577.04 141.85 1554.15 136.741 1531.25 131.631C1509.75 126.832 1488.24 122.031 1466.67 122.147C1438.65 122.347 1410.73 130.811 1382.79 139.282L1382.79 139.283C1366.32 144.275 1349.85 149.271 1333.33 152.58C1288.8 161.502 1244.53 157.997 1200 152.58C1188.77 151.214 1177.56 149.716 1166.36 148.22L1166.36 148.22C1133.13 143.781 1099.97 139.352 1066.67 138.399C1051.22 137.929 1035.8 138.198 1020.39 138.466C991.387 138.971 962.417 139.475 933.333 135.053C909.252 131.391 885.249 124.352 861.239 117.31C840.848 111.33 820.452 105.348 800 101.434C757.901 93.4505 716.039 94.1534 673.966 94.8598C671.534 94.9006 669.101 94.9415 666.667 94.9807C663.784 95.0219 660.903 95.0605 658.023 95.0991C616.402 95.6564 574.984 96.211 533.333 104.78C504.958 110.617 476.691 120.174 448.394 129.741C432.281 135.189 416.158 140.64 400 145.41C355.467 158.555 311.2 166.521 266.667 166.76C222.133 167.079 177.867 159.59 133.333 151.624C88.8 143.657 44.5333 135.212 22.1333 130.91L7.67046e-08 126.688L1.64198e-07 272.337L22.1333 269.309C44.5333 266.202 88.8 260.148 133.333 256.244C177.867 252.42 222.133 250.827 266.667 253.854C296.106 255.908 325.428 259.946 354.789 263.99L354.791 263.99C369.844 266.063 384.907 268.138 400 269.947C444.533 275.284 488.8 278.152 533.333 275.364C557.641 273.842 581.869 270.635 606.105 267.427L606.107 267.426C626.272 264.757 646.442 262.087 666.667 260.387C698.63 257.699 730.456 257.515 762.342 257.331C774.881 257.258 787.43 257.186 800 256.961C821.381 256.579 842.7 255.755 864.016 254.932H864.018C887.101 254.041 910.181 253.15 933.333 252.818C961.446 252.416 989.453 252.776 1017.49 253.136C1033.86 253.346 1050.25 253.556 1066.67 253.615C1093.04 253.709 1119.33 253.357 1145.63 253.004C1163.73 252.761 1181.84 252.517 1200 252.42C1244.53 252.181 1288.8 252.659 1333.33 257.598C1349.09 259.346 1364.82 261.633 1380.53 263.918C1409.23 268.09 1437.89 272.258 1466.67 273.133C1501.2 274.183 1535.57 270.396 1570.02 266.599L1570.03 266.599C1580.01 265.499 1590 264.398 1600 263.414C1635.04 259.967 1669.91 257.949 1704.88 255.927C1714.36 255.378 1723.84 254.83 1733.33 254.252C1749.06 253.324 1764.75 252.326 1780.44 251.329L1780.44 251.329C1809.17 249.502 1837.86 247.677 1866.67 246.286C1911.2 244.214 1955.47 243.099 2000 245.091C2019.98 245.984 2039.9 247.503 2059.82 249.021C2084.3 250.887 2108.78 252.753 2133.33 253.456C2149.43 253.945 2165.5 253.946 2181.56 253.946C2209.91 253.946 2238.23 253.947 2266.67 256.642C2285.35 258.448 2297.13 262.29 2309.05 266.177C2325.52 271.552 2342.25 277.01 2377.87 277.276C2385.45 277.333 2392.5 273.325 2400 272.325V127Z"
        fill="#5386BB"
        stroke="#5386BB"
      />
      <path
        id="13"
        opacity="0.7"
        d="M4800 127C4757.55 119.428 4709.65 117.866 4666.67 122.864C4645.92 125.277 4625.23 131.339 4604.54 137.4C4580.83 144.347 4557.12 151.292 4533.33 152.739C4507.46 154.267 4481.67 149.258 4455.87 144.246C4437.26 140.632 4418.66 137.018 4400 135.85C4379.38 134.559 4358.82 136.256 4338.26 137.954C4314.42 139.923 4290.58 141.891 4266.67 139.196C4248.07 137.066 4229.51 132.13 4210.97 127.195C4185.11 120.314 4159.27 113.438 4133.33 114.18C4110.95 114.861 4088.63 121.238 4066.31 127.616C4044.23 133.926 4022.15 140.236 4000 141.028C3977.04 141.85 3954.15 136.741 3931.25 131.631C3909.75 126.832 3888.24 122.031 3866.67 122.147C3838.65 122.347 3810.73 130.811 3782.79 139.282L3782.79 139.283C3766.32 144.275 3749.85 149.271 3733.33 152.58C3688.8 161.502 3644.53 157.997 3600 152.58C3588.77 151.214 3577.56 149.716 3566.36 148.22L3566.36 148.22C3533.13 143.781 3499.97 139.352 3466.67 138.399C3451.22 137.929 3435.8 138.198 3420.39 138.466C3391.39 138.971 3362.42 139.475 3333.33 135.053C3309.25 131.391 3285.25 124.352 3261.24 117.31C3240.85 111.33 3220.45 105.348 3200 101.434C3157.9 93.4505 3116.04 94.1534 3073.97 94.8598C3071.53 94.9006 3069.1 94.9415 3066.67 94.9807C3063.78 95.0219 3060.9 95.0605 3058.02 95.0991C3016.4 95.6564 2974.98 96.211 2933.33 104.78C2904.96 110.617 2876.69 120.174 2848.39 129.741C2832.28 135.189 2816.16 140.64 2800 145.41C2755.47 158.555 2711.2 166.521 2666.67 166.76C2622.13 167.079 2577.87 159.59 2533.33 151.624C2488.8 143.657 2444.53 135.212 2422.13 130.91L2400 126.688L2400 272.337L2422.13 269.309C2444.53 266.202 2488.8 260.148 2533.33 256.244C2577.87 252.42 2622.13 250.827 2666.67 253.854C2696.11 255.908 2725.43 259.946 2754.79 263.99L2754.79 263.99C2769.84 266.063 2784.91 268.138 2800 269.947C2844.53 275.284 2888.8 278.152 2933.33 275.364C2957.64 273.842 2981.87 270.635 3006.1 267.427L3006.11 267.426C3026.27 264.757 3046.44 262.087 3066.67 260.387C3098.63 257.699 3130.46 257.515 3162.34 257.331C3174.88 257.258 3187.43 257.186 3200 256.961C3221.38 256.579 3242.7 255.755 3264.02 254.932H3264.02C3287.1 254.041 3310.18 253.15 3333.33 252.818C3361.45 252.416 3389.45 252.776 3417.49 253.136C3433.86 253.346 3450.25 253.556 3466.67 253.615C3493.04 253.709 3519.33 253.357 3545.63 253.004C3563.73 252.761 3581.84 252.517 3600 252.42C3644.53 252.181 3688.8 252.659 3733.33 257.598C3749.09 259.346 3764.82 261.633 3780.53 263.918C3809.23 268.09 3837.89 272.258 3866.67 273.133C3901.2 274.183 3935.57 270.396 3970.02 266.599L3970.03 266.599C3980.01 265.499 3990 264.398 4000 263.414C4035.04 259.967 4069.91 257.949 4104.88 255.927C4114.36 255.378 4123.84 254.83 4133.33 254.252C4149.06 253.324 4164.75 252.326 4180.44 251.329L4180.44 251.329C4209.17 249.502 4237.86 247.677 4266.67 246.286C4311.2 244.214 4355.47 243.099 4400 245.091C4419.98 245.984 4439.9 247.503 4459.82 249.021C4484.3 250.887 4508.78 252.753 4533.33 253.456C4549.43 253.945 4565.5 253.946 4581.56 253.946C4609.91 253.946 4638.23 253.947 4666.67 256.642C4685.35 258.448 4697.13 262.29 4709.05 266.177C4725.52 271.552 4742.25 277.01 4777.87 277.276C4785.45 277.333 4792.5 273.325 4800 272.325V127Z"
        fill="#5386BB"
        stroke="#5386BB"
      />
    </g>
    <g id="Group 3">
      <path
        id="5"
        opacity="0.7"
        d="M2400 135.308L2359 135C2283.19 139.105 2208.99 179.187 2133.33 174.586C2121 173.858 2108.69 172.903 2096.38 171.95L2096.38 171.95C2064.26 169.46 2032.2 166.976 2000 168.531C1975.22 169.684 1950.52 173.254 1925.81 176.826C1906.11 179.673 1886.42 182.52 1866.67 184.146C1839.67 186.416 1812.76 186.431 1785.84 186.446C1768.36 186.456 1750.87 186.466 1733.33 187.093C1721.08 187.532 1708.84 188.272 1696.61 189.012C1664.41 190.96 1632.28 192.904 1600 189.324C1571.3 186.192 1542.72 178.661 1514.1 171.121C1498.31 166.961 1482.5 162.797 1466.67 159.369C1422.13 149.65 1377.87 145.667 1333.33 146.463C1303.69 146.994 1274.17 149.641 1244.61 152.292L1244.61 152.293C1229.75 153.625 1214.89 154.958 1200 156.023C1155.47 159.21 1111.2 160.007 1066.67 156.82C1046.94 155.409 1027.28 153.216 1007.61 151.025C982.874 148.267 958.145 145.511 933.333 144.312C903.974 142.947 874.731 143.728 845.451 144.51H845.45L845.448 144.51C830.316 144.915 815.173 145.319 800 145.428C788.778 145.488 777.574 145.381 766.378 145.275H766.371C733.137 144.958 699.976 144.642 666.667 148.694C642.142 151.721 617.698 157.092 593.245 162.465C573.296 166.848 553.342 171.233 533.333 174.347C488.8 181.278 444.533 181.756 400 178.489C355.956 175.18 312.173 168.13 268.134 161.04L264.776 160.499C220.88 153.431 177.236 146.404 133.333 142.241C90.7261 138.125 48.3629 136.78 25.1607 136.044C24.1119 136.01 23.1021 135.978 22.1333 135.947L8.1884e-08 135.31L1.64199e-07 272.337L22.1333 269.309C44.5333 266.202 88.8 260.148 133.333 256.244C177.867 252.42 222.133 250.827 266.667 253.854C296.106 255.908 325.429 259.946 354.789 263.99C369.843 266.063 384.906 268.138 400 269.947C444.533 275.284 488.8 278.152 533.333 275.364C557.641 273.842 581.87 270.635 606.106 267.427C626.271 264.757 646.441 262.087 666.667 260.387C698.63 257.699 730.457 257.515 762.343 257.331C774.882 257.258 787.43 257.186 800 256.961C821.379 256.579 842.697 255.756 864.012 254.932L864.016 254.932H864.018C887.101 254.041 910.181 253.15 933.333 252.818C961.446 252.416 989.453 252.776 1017.49 253.136C1033.86 253.346 1050.25 253.556 1066.67 253.615C1093.04 253.709 1119.33 253.357 1145.63 253.004C1163.73 252.761 1181.84 252.518 1200 252.42C1244.53 252.181 1288.8 252.659 1333.33 257.598C1349.09 259.346 1364.82 261.633 1380.53 263.918C1409.23 268.09 1437.89 272.258 1466.67 273.133C1501.2 274.183 1535.57 270.396 1570.02 266.599C1580.01 265.499 1590 264.398 1600 263.414C1635.04 259.967 1669.91 257.949 1704.88 255.927L1704.9 255.926C1714.37 255.378 1723.84 254.83 1733.33 254.252C1749.06 253.324 1764.75 252.326 1780.44 251.329L1780.44 251.329C1809.17 249.502 1837.86 247.677 1866.67 246.286C1911.2 244.214 1955.47 243.099 2000 245.091C2019.98 245.984 2039.9 247.503 2059.82 249.021C2084.3 250.887 2108.78 252.753 2133.33 253.456C2149.43 253.945 2165.5 253.946 2181.56 253.946C2242.43 253.947 2300.68 279 2359 279C2372.5 279 2400 272.337 2400 272.337V135.308Z"
        fill="#5386BB"
        stroke="#5386BB"
      />
      <path
        id="14"
        opacity="0.7"
        d="M4800 135.308L4759 135C4683.19 139.105 4608.99 179.187 4533.33 174.586C4521 173.858 4508.69 172.903 4496.38 171.95L4496.38 171.95C4464.26 169.46 4432.2 166.976 4400 168.531C4375.22 169.684 4350.52 173.254 4325.81 176.826C4306.11 179.673 4286.42 182.52 4266.67 184.146C4239.67 186.416 4212.76 186.431 4185.84 186.446C4168.36 186.456 4150.87 186.466 4133.33 187.093C4121.08 187.532 4108.84 188.272 4096.61 189.012C4064.41 190.96 4032.28 192.904 4000 189.324C3971.3 186.192 3942.72 178.661 3914.1 171.121C3898.31 166.961 3882.5 162.797 3866.67 159.369C3822.13 149.65 3777.87 145.667 3733.33 146.463C3703.69 146.994 3674.17 149.641 3644.61 152.292L3644.61 152.293C3629.75 153.625 3614.89 154.958 3600 156.023C3555.47 159.21 3511.2 160.007 3466.67 156.82C3446.94 155.409 3427.28 153.216 3407.61 151.025C3382.87 148.267 3358.14 145.511 3333.33 144.312C3303.97 142.947 3274.73 143.728 3245.45 144.51H3245.45L3245.45 144.51C3230.32 144.915 3215.17 145.319 3200 145.428C3188.78 145.488 3177.57 145.381 3166.38 145.275H3166.37C3133.14 144.958 3099.98 144.642 3066.67 148.694C3042.14 151.721 3017.7 157.092 2993.25 162.465C2973.3 166.848 2953.34 171.233 2933.33 174.347C2888.8 181.278 2844.53 181.756 2800 178.489C2755.96 175.18 2712.17 168.13 2668.13 161.04L2664.78 160.499C2620.88 153.431 2577.24 146.404 2533.33 142.241C2490.73 138.125 2448.36 136.78 2425.16 136.044C2424.11 136.01 2423.1 135.978 2422.13 135.947L2400 135.31L2400 272.337L2422.13 269.309C2444.53 266.202 2488.8 260.148 2533.33 256.244C2577.87 252.42 2622.13 250.827 2666.67 253.854C2696.11 255.908 2725.43 259.946 2754.79 263.99C2769.84 266.063 2784.91 268.138 2800 269.947C2844.53 275.284 2888.8 278.152 2933.33 275.364C2957.64 273.842 2981.87 270.635 3006.11 267.427C3026.27 264.757 3046.44 262.087 3066.67 260.387C3098.63 257.699 3130.46 257.515 3162.34 257.331C3174.88 257.258 3187.43 257.186 3200 256.961C3221.38 256.579 3242.7 255.756 3264.01 254.932L3264.02 254.932H3264.02C3287.1 254.041 3310.18 253.15 3333.33 252.818C3361.45 252.416 3389.45 252.776 3417.49 253.136C3433.86 253.346 3450.25 253.556 3466.67 253.615C3493.04 253.709 3519.33 253.357 3545.63 253.004C3563.73 252.761 3581.84 252.518 3600 252.42C3644.53 252.181 3688.8 252.659 3733.33 257.598C3749.09 259.346 3764.82 261.633 3780.53 263.918C3809.23 268.09 3837.89 272.258 3866.67 273.133C3901.2 274.183 3935.57 270.396 3970.02 266.599C3980.01 265.499 3990 264.398 4000 263.414C4035.04 259.967 4069.91 257.949 4104.88 255.927L4104.9 255.926C4114.37 255.378 4123.84 254.83 4133.33 254.252C4149.06 253.324 4164.75 252.326 4180.44 251.329L4180.44 251.329C4209.17 249.502 4237.86 247.677 4266.67 246.286C4311.2 244.214 4355.47 243.099 4400 245.091C4419.98 245.984 4439.9 247.503 4459.82 249.021C4484.3 250.887 4508.78 252.753 4533.33 253.456C4549.43 253.945 4565.5 253.946 4581.56 253.946C4642.43 253.947 4700.68 279 4759 279C4772.5 279 4800 272.337 4800 272.337V135.308Z"
        fill="#5386BB"
        stroke="#5386BB"
      />
    </g>
    <g id="Group 2">
      <path
        id="4"
        opacity="0.7"
        d="M2400 212.587C2329 212.587 2327.72 199.989 2266.67 203.266C2241.86 204.597 2217.14 202.072 2192.41 199.547C2172.74 197.538 2153.06 195.529 2133.33 195.458C2101.69 195.345 2070.18 200.301 2038.61 205.265C2025.75 207.287 2012.89 209.31 2000 210.993C1955.47 216.809 1911.2 218.721 1866.67 219.757C1822.13 220.792 1777.87 221.111 1733.33 214.738C1717.38 212.454 1701.46 209.312 1685.55 206.172C1657.05 200.547 1628.58 194.928 1600 194.263C1570.93 193.587 1541.97 197.97 1512.97 202.358C1497.56 204.692 1482.13 207.027 1466.67 208.603C1422.13 213.144 1377.87 211.232 1333.33 204.62C1309.73 201.115 1286.2 196.245 1262.66 191.373C1241.8 187.054 1220.93 182.735 1200 179.366C1155.47 172.196 1111.2 169.328 1066.67 173.152C1032.01 176.128 997.506 183.255 962.916 190.4C953.065 192.435 943.206 194.472 933.333 196.414C888.8 205.178 844.533 212.029 800 211.392C776.894 211.061 753.86 208.671 730.823 206.282C709.459 204.065 688.094 201.849 666.667 201.274C627.165 200.214 587.872 204.733 548.418 209.27C543.393 209.848 538.365 210.426 533.333 210.993C488.8 216.012 444.533 220.314 400 214.977C379.685 212.542 359.425 208.134 339.17 203.727C315.024 198.474 290.885 193.222 266.667 191.316C230.348 188.522 194.206 193.305 157.953 198.103C149.753 199.189 141.548 200.275 133.333 201.274C90.7311 206.533 48.3728 209.385 25.1689 210.948L25.1672 210.948L25.0676 210.955C24.052 211.023 23.0734 211.089 22.1333 211.153L1.28306e-07 212.587L1.64198e-07 272.337L22.1333 269.309C44.5333 266.202 88.8 260.148 133.333 256.244C177.867 252.42 222.133 250.827 266.667 253.854C296.106 255.908 325.429 259.946 354.789 263.99C369.843 266.063 384.906 268.138 400 269.947C444.533 275.284 488.8 278.152 533.333 275.364C557.641 273.842 581.87 270.635 606.106 267.427C626.271 264.757 646.441 262.087 666.667 260.387C698.63 257.699 730.457 257.515 762.343 257.331C774.882 257.258 787.43 257.186 800 256.961C821.379 256.579 842.697 255.755 864.012 254.932L864.016 254.932H864.018C887.101 254.041 910.181 253.15 933.333 252.818C961.446 252.416 989.453 252.776 1017.49 253.136C1033.86 253.346 1050.25 253.556 1066.67 253.615C1093.04 253.709 1119.33 253.357 1145.63 253.004C1163.73 252.761 1181.84 252.517 1200 252.42C1244.53 252.181 1288.8 252.659 1333.33 257.598C1349.09 259.346 1364.82 261.633 1380.53 263.918C1409.23 268.09 1437.89 272.258 1466.67 273.133C1501.2 274.183 1535.57 270.396 1570.02 266.599C1580.01 265.499 1590 264.398 1600 263.414C1635.04 259.967 1669.91 257.949 1704.88 255.927L1704.9 255.926C1714.37 255.378 1723.84 254.829 1733.33 254.252C1749.06 253.324 1764.75 252.326 1780.44 251.329L1780.44 251.329C1809.17 249.502 1837.86 247.677 1866.67 246.286C1911.2 244.214 1955.47 243.099 2000 245.091C2019.98 245.984 2039.9 247.503 2059.82 249.021C2084.3 250.887 2108.78 252.753 2133.33 253.456C2149.43 253.945 2165.5 253.946 2181.56 253.946C2209.91 253.946 2238.23 253.947 2266.67 256.642C2311.2 260.944 2333 268.5 2340 270C2347 271.5 2400 272.345 2400 272.345V212.587Z"
        fill="#476D9E"
        stroke="#476D9E"
      />
      <path
        id="15"
        opacity="0.7"
        d="M4800 212.587C4729 212.587 4727.72 199.989 4666.67 203.266C4641.86 204.597 4617.14 202.072 4592.41 199.547C4572.74 197.538 4553.06 195.529 4533.33 195.458C4501.69 195.345 4470.18 200.301 4438.61 205.265C4425.75 207.287 4412.89 209.31 4400 210.993C4355.47 216.809 4311.2 218.721 4266.67 219.757C4222.13 220.792 4177.87 221.111 4133.33 214.738C4117.38 212.454 4101.46 209.312 4085.55 206.172C4057.05 200.547 4028.58 194.928 4000 194.263C3970.93 193.587 3941.97 197.97 3912.97 202.358C3897.56 204.692 3882.13 207.027 3866.67 208.603C3822.13 213.144 3777.87 211.232 3733.33 204.62C3709.73 201.115 3686.2 196.245 3662.66 191.373C3641.8 187.054 3620.93 182.735 3600 179.366C3555.47 172.196 3511.2 169.328 3466.67 173.152C3432.01 176.128 3397.51 183.255 3362.92 190.4C3353.06 192.435 3343.21 194.472 3333.33 196.414C3288.8 205.178 3244.53 212.029 3200 211.392C3176.89 211.061 3153.86 208.671 3130.82 206.282C3109.46 204.065 3088.09 201.849 3066.67 201.274C3027.16 200.214 2987.87 204.733 2948.42 209.27C2943.39 209.848 2938.36 210.426 2933.33 210.993C2888.8 216.012 2844.53 220.314 2800 214.977C2779.68 212.542 2759.42 208.134 2739.17 203.727C2715.02 198.474 2690.88 193.222 2666.67 191.316C2630.35 188.522 2594.21 193.305 2557.95 198.103C2549.75 199.189 2541.55 200.275 2533.33 201.274C2490.73 206.533 2448.37 209.385 2425.17 210.948L2425.17 210.948L2425.07 210.955C2424.05 211.023 2423.07 211.089 2422.13 211.153L2400 212.587L2400 272.337L2422.13 269.309C2444.53 266.202 2488.8 260.148 2533.33 256.244C2577.87 252.42 2622.13 250.827 2666.67 253.854C2696.11 255.908 2725.43 259.946 2754.79 263.99C2769.84 266.063 2784.91 268.138 2800 269.947C2844.53 275.284 2888.8 278.152 2933.33 275.364C2957.64 273.842 2981.87 270.635 3006.11 267.427C3026.27 264.757 3046.44 262.087 3066.67 260.387C3098.63 257.699 3130.46 257.515 3162.34 257.331C3174.88 257.258 3187.43 257.186 3200 256.961C3221.38 256.579 3242.7 255.755 3264.01 254.932L3264.02 254.932H3264.02C3287.1 254.041 3310.18 253.15 3333.33 252.818C3361.45 252.416 3389.45 252.776 3417.49 253.136C3433.86 253.346 3450.25 253.556 3466.67 253.615C3493.04 253.709 3519.33 253.357 3545.63 253.004C3563.73 252.761 3581.84 252.517 3600 252.42C3644.53 252.181 3688.8 252.659 3733.33 257.598C3749.09 259.346 3764.82 261.633 3780.53 263.918C3809.23 268.09 3837.89 272.258 3866.67 273.133C3901.2 274.183 3935.57 270.396 3970.02 266.599C3980.01 265.499 3990 264.398 4000 263.414C4035.04 259.967 4069.91 257.949 4104.88 255.927L4104.9 255.926C4114.37 255.378 4123.84 254.829 4133.33 254.252C4149.06 253.324 4164.75 252.326 4180.44 251.329L4180.44 251.329C4209.17 249.502 4237.86 247.677 4266.67 246.286C4311.2 244.214 4355.47 243.099 4400 245.091C4419.98 245.984 4439.9 247.503 4459.82 249.021C4484.3 250.887 4508.78 252.753 4533.33 253.456C4549.43 253.945 4565.5 253.946 4581.56 253.946C4609.91 253.946 4638.23 253.947 4666.67 256.642C4711.2 260.944 4733 268.5 4740 270C4747 271.5 4800 272.345 4800 272.345V212.587Z"
        fill="#476D9E"
        stroke="#476D9E"
      />
    </g>
    <g id="Group 1">
      <path
        id="3"
        opacity="0.7"
        d="M2400 223.739C2400 223.739 2367.5 215 2344.5 216.5C2321.5 218 2311.2 238.319 2266.67 234.734C2262 234.358 2257.33 233.973 2252.67 233.587C2212.85 230.297 2173.2 227.022 2133.33 229.874C2117 231.043 2100.69 233.242 2084.4 235.439C2056.28 239.231 2028.2 243.019 2000 241.506C1976.54 240.246 1953.15 235.316 1929.76 230.385C1908.75 225.957 1887.74 221.528 1866.67 219.757C1833.42 216.961 1800.32 220.871 1767.15 224.789L1767.15 224.789C1755.89 226.119 1744.62 227.45 1733.33 228.52C1702.57 231.437 1671.94 232.491 1641.25 233.546C1627.52 234.019 1613.77 234.492 1600 235.132C1588.94 235.667 1577.89 236.314 1566.86 236.961C1533.46 238.918 1500.14 240.871 1466.67 239.673C1448.63 239.028 1430.64 237.468 1412.66 235.909C1386.24 233.619 1359.83 231.329 1333.33 231.946C1309.8 232.535 1286.35 235.393 1262.89 238.251C1241.95 240.803 1221 243.355 1200 244.294C1155.47 246.286 1111.2 241.028 1066.67 235.69C1022.13 230.352 977.867 225.094 933.333 224.377C888.8 223.74 844.533 227.723 800 233.539C792.694 234.506 785.396 235.52 778.103 236.534L778.102 236.534L778.1 236.534C740.934 241.699 703.894 246.847 666.667 245.648C644.207 244.925 621.815 241.851 599.423 238.777C577.415 235.756 555.407 232.735 533.333 231.946C505.908 230.964 478.584 233.428 451.236 235.893L451.235 235.893C434.176 237.431 417.108 238.969 400 239.673C373.289 240.772 346.673 239.894 320.039 239.014L320.038 239.014C302.267 238.428 284.488 237.841 266.667 237.841C248.53 237.841 230.437 238.449 212.353 239.056C186.033 239.941 159.73 240.824 133.333 239.833C89.4756 238.107 45.8765 231.126 23.1678 227.491L22.1333 227.325L1.35006e-07 223.74L1.64198e-07 272.337L22.1333 269.309C44.5333 266.202 88.8 260.148 133.333 256.244C177.867 252.42 222.133 250.827 266.667 253.854C296.106 255.908 325.429 259.946 354.789 263.99C369.843 266.063 384.906 268.137 400 269.947C444.533 275.284 488.8 278.152 533.333 275.364C557.641 273.842 581.87 270.635 606.106 267.426C626.271 264.757 646.441 262.087 666.667 260.387C698.63 257.699 730.457 257.515 762.343 257.331C774.882 257.258 787.43 257.186 800 256.961C821.379 256.578 842.697 255.755 864.012 254.932L864.016 254.932H864.018C887.101 254.041 910.181 253.15 933.333 252.818C961.446 252.416 989.453 252.776 1017.49 253.136C1033.86 253.346 1050.25 253.556 1066.67 253.615C1093.04 253.709 1119.33 253.357 1145.63 253.003C1163.73 252.76 1181.84 252.517 1200 252.42C1244.53 252.181 1288.8 252.659 1333.33 257.598C1349.09 259.346 1364.82 261.633 1380.53 263.918C1409.23 268.09 1437.89 272.258 1466.67 273.133C1501.2 274.183 1535.57 270.396 1570.02 266.599C1580.01 265.499 1590 264.398 1600 263.414C1635.04 259.967 1669.91 257.949 1704.88 255.927L1704.89 255.926L1704.9 255.925C1714.37 255.378 1723.84 254.829 1733.33 254.252C1749.06 253.324 1764.75 252.326 1780.44 251.329L1780.44 251.329L1780.44 251.329C1809.17 249.502 1837.86 247.677 1866.67 246.286C1911.2 244.214 1955.47 243.099 2000 245.091C2019.98 245.984 2039.9 247.503 2059.82 249.021C2084.3 250.887 2108.78 252.753 2133.33 253.456C2149.43 253.945 2165.5 253.945 2181.56 253.946C2209.91 253.946 2238.23 253.946 2266.67 256.642C2311.2 260.944 2314 279 2341.5 278.5C2369 278 2400 272.32 2400 272.32V223.739Z"
        fill="#374F7A"
        stroke="#374F7A"
      />
      <path
        id="16"
        opacity="0.7"
        d="M4800 223.739C4800 223.739 4767.5 215 4744.5 216.5C4721.5 218 4711.2 238.319 4666.67 234.734C4662 234.358 4657.33 233.973 4652.67 233.587C4612.85 230.297 4573.2 227.022 4533.33 229.874C4517 231.043 4500.69 233.242 4484.4 235.439C4456.28 239.231 4428.2 243.019 4400 241.506C4376.54 240.246 4353.15 235.316 4329.76 230.385C4308.75 225.957 4287.74 221.528 4266.67 219.757C4233.42 216.961 4200.32 220.871 4167.15 224.789L4167.15 224.789C4155.89 226.119 4144.62 227.45 4133.33 228.52C4102.57 231.437 4071.94 232.491 4041.25 233.546C4027.52 234.019 4013.77 234.492 4000 235.132C3988.94 235.667 3977.89 236.314 3966.86 236.961C3933.46 238.918 3900.14 240.871 3866.67 239.673C3848.63 239.028 3830.64 237.468 3812.66 235.909C3786.24 233.619 3759.83 231.329 3733.33 231.946C3709.8 232.535 3686.35 235.393 3662.89 238.251C3641.95 240.803 3621 243.355 3600 244.294C3555.47 246.286 3511.2 241.028 3466.67 235.69C3422.13 230.352 3377.87 225.094 3333.33 224.377C3288.8 223.74 3244.53 227.723 3200 233.539C3192.69 234.506 3185.4 235.52 3178.1 236.534L3178.1 236.534L3178.1 236.534C3140.93 241.699 3103.89 246.847 3066.67 245.648C3044.21 244.925 3021.82 241.851 2999.42 238.777C2977.42 235.756 2955.41 232.735 2933.33 231.946C2905.91 230.964 2878.58 233.428 2851.24 235.893L2851.23 235.893C2834.18 237.431 2817.11 238.969 2800 239.673C2773.29 240.772 2746.67 239.894 2720.04 239.014L2720.04 239.014C2702.27 238.428 2684.49 237.841 2666.67 237.841C2648.53 237.841 2630.44 238.449 2612.35 239.056C2586.03 239.941 2559.73 240.824 2533.33 239.833C2489.48 238.107 2445.88 231.126 2423.17 227.491L2422.13 227.325L2400 223.74L2400 272.337L2422.13 269.309C2444.53 266.202 2488.8 260.148 2533.33 256.244C2577.87 252.42 2622.13 250.827 2666.67 253.854C2696.11 255.908 2725.43 259.946 2754.79 263.99C2769.84 266.063 2784.91 268.137 2800 269.947C2844.53 275.284 2888.8 278.152 2933.33 275.364C2957.64 273.842 2981.87 270.635 3006.11 267.426C3026.27 264.757 3046.44 262.087 3066.67 260.387C3098.63 257.699 3130.46 257.515 3162.34 257.331C3174.88 257.258 3187.43 257.186 3200 256.961C3221.38 256.578 3242.7 255.755 3264.01 254.932L3264.02 254.932H3264.02C3287.1 254.041 3310.18 253.15 3333.33 252.818C3361.45 252.416 3389.45 252.776 3417.49 253.136C3433.86 253.346 3450.25 253.556 3466.67 253.615C3493.04 253.709 3519.33 253.357 3545.63 253.003C3563.73 252.76 3581.84 252.517 3600 252.42C3644.53 252.181 3688.8 252.659 3733.33 257.598C3749.09 259.346 3764.82 261.633 3780.53 263.918C3809.23 268.09 3837.89 272.258 3866.67 273.133C3901.2 274.183 3935.57 270.396 3970.02 266.599C3980.01 265.499 3990 264.398 4000 263.414C4035.04 259.967 4069.91 257.949 4104.88 255.927L4104.89 255.926L4104.9 255.925C4114.37 255.378 4123.84 254.829 4133.33 254.252C4149.06 253.324 4164.75 252.326 4180.44 251.329L4180.44 251.329L4180.44 251.329C4209.17 249.502 4237.86 247.677 4266.67 246.286C4311.2 244.214 4355.47 243.099 4400 245.091C4419.98 245.984 4439.9 247.503 4459.82 249.021C4484.3 250.887 4508.78 252.753 4533.33 253.456C4549.43 253.945 4565.5 253.945 4581.56 253.946C4609.91 253.946 4638.23 253.946 4666.67 256.642C4711.2 260.944 4714 279 4741.5 278.5C4769 278 4800 272.32 4800 272.32V223.739Z"
        fill="#374F7A"
        stroke="#374F7A"
      />
    </g>
  </g>
</svg>
