<svg width="100" height="100" fill="none" xmlns="http://www.w3.org/2000/svg"><path fill="#0D0F20" d="M0 0h100v100H0z"/><path d="M48.877 78.362 30.95 32.704l13.53.709 7.313 19.42c.22.608.535 1.434.943 2.477.45 1.046.912 2.263 1.386 3.65.519 1.348 1.01 2.8 1.476 4.358a52.895 52.895 0 0 1 1.197 4.854l-2.58-.135a87.836 87.836 0 0 1 2.248-5.568 162.284 162.284 0 0 1 2.337-4.86 65.656 65.656 0 0 0 2.049-4.173l9.183-18.684 13.216.693-22.098 43.56-12.273-.643Z" fill="#213941"/><path d="M45.463 76.415 26.097 27.582l14.6.766 7.899 20.77c.238.65.578 1.533 1.019 2.65.486 1.118.985 2.42 1.497 3.903a63.721 63.721 0 0 1 1.595 4.66A56.151 56.151 0 0 1 54 65.524l-2.784-.146a93.434 93.434 0 0 1 2.422-5.953c.87-1.867 1.71-3.599 2.52-5.196a69.854 69.854 0 0 0 2.208-4.461l9.899-19.975 14.26.748-23.821 46.569-13.242-.694Z" fill="#396572"/><path d="M39.782 71.164 19.02 19l15.644.82 8.469 22.188c.255.694.62 1.637 1.092 2.83a58.182 58.182 0 0 1 1.606 4.17c.6 1.54 1.17 3.198 1.709 4.978a59.862 59.862 0 0 1 1.388 5.545l-2.984-.156a99.57 99.57 0 0 1 2.595-6.358 184.468 184.468 0 0 1 2.699-5.55 74.488 74.488 0 0 0 2.366-4.765l10.603-21.334 15.281.801-25.518 49.739-14.19-.744Z" fill="#00C2FF"/></svg>